<svg height="627.208" viewBox="0 0 910 627.208" width="910" xmlns="http://www.w3.org/2000/svg"><path d="m0 0h910v627.208h-910z" fill="#fff"/><g stroke="#000"><path d="m221.52 292.463h-60.298" fill="none" stroke-width="5"/><path d="m164.838 280.389h51" fill="none" stroke-width="3"/><path d="m190.338 280.389v-20.888" fill="none" stroke-width="3"/><path d="m215.839 316.963h85.158" fill="none" stroke-width="3"/><path d="m167.25 292.609v23" fill="none" stroke-width="3"/><path d="m215.838 293.963v23" fill="none" stroke-width="3"/><path d="m168.02 316.963h-53.75" fill="none" stroke-width="3"/><path d="m644.187 289.921h-60.298" fill="none" stroke-width="5"/><path d="m587.505 277.847h51" fill="none" stroke-width="3"/><path d="m613.005 277.847v-20.888" fill="none" stroke-width="3"/><path d="m638.505 314.421h53.682" fill="none" stroke-width="3"/><path d="m589.916 290.068v23" fill="none" stroke-width="3"/><path d="m638.505 291.421v23" fill="none" stroke-width="3"/><path d="m590.686 314.421h-101.06" fill="none" stroke-width="3"/><path d="m325.497 413.229v-60.298" fill="none" stroke-width="5"/><path d="m337.572 356.547v51" fill="none" stroke-width="3"/><path d="m337.572 382.047h20.887" fill="none" stroke-width="3"/><path d="m300.997 407.547v53.682" fill="none" stroke-width="3"/><path d="m325.351 358.959h-23" fill="none" stroke-width="3"/><path d="m323.997 407.547h-23" fill="none" stroke-width="3"/><path d="m300.997 359.729v-184.04" fill="none" stroke-width="3"/><path d="m465.126 347.668v60.298" fill="none" stroke-width="5"/><path d="m453.052 404.35v-51" fill="none" stroke-width="3"/><path d="m453.052 378.85h-20.888" fill="none" stroke-width="3"/><path d="m489.626 353.35v-176.8" fill="none" stroke-width="3"/><path d="m465.272 401.938h23" fill="none" stroke-width="3"/><path d="m466.626 353.35h23" fill="none" stroke-width="3"/><path d="m489.626 401.168v53.75" fill="none" stroke-width="3"/><path d="m114.27 240.939v197.812" fill="none" stroke-width="3"/><path d="m114.27 130.939v427.645" fill="none" stroke-dasharray="18 15" stroke-width="3"/><path d="m692.624 148.577-2.25 425.29" fill="none" stroke-dasharray="18 15" stroke-width="3"/><path d="m692.187 232.438v206.313" fill="none" stroke-width="3"/><path d="m280.812 176.55h228" fill="none" stroke-width="3"/><path d="m249.886 549.708h298" fill="none" stroke-width="3"/><path d="m366.781 294.104h122.845" fill="none" stroke-width="3"/><path d="m300.997 335.595h123.673" fill="none" stroke-width="3"/><path d="m337.848 381.845h28.933" fill="none" stroke-width="3"/><path d="m366.781 380.503v-129.538" fill="none" stroke-width="3"/><path d="m424.67 380.502v-126.812" fill="none" stroke-width="3"/><path d="m424.67 379.178h28.105" fill="none" stroke-width="3"/><path d="m166.146 77.939h473.725" fill="none" stroke-width="3"/></g><path d="m691.499 322.4c-3.682 0-6.666-2.984-6.666-6.666s2.984-6.667 6.666-6.667 6.667 2.985 6.667 6.667-2.985 6.666-6.667 6.666z"/><path d="m691.499 322.4c-3.682 0-6.666-2.984-6.666-6.666s2.984-6.667 6.666-6.667 6.667 2.985 6.667 6.667-2.985 6.666-6.667 6.666z" fill="none" stroke="#000" stroke-width="3"/><path d="m613.172 84.605c-3.682 0-6.667-2.984-6.667-6.666s2.985-6.667 6.667-6.667 6.666 2.985 6.666 6.667-2.984 6.666-6.666 6.666z"/><path d="m613.172 84.605c-3.682 0-6.667-2.984-6.667-6.666s2.985-6.667 6.667-6.667 6.666 2.985 6.666 6.667-2.984 6.666-6.666 6.666z" fill="none" stroke="#000" stroke-width="3"/><path d="m190.338 84.605c-3.682 0-6.666-2.984-6.666-6.666s2.984-6.667 6.666-6.667 6.667 2.985 6.667 6.667-2.985 6.666-6.667 6.666z"/><path d="m190.338 84.605c-3.682 0-6.666-2.984-6.666-6.666s2.984-6.667 6.666-6.667 6.667 2.985 6.667 6.667-2.985 6.666-6.667 6.666z" fill="none" stroke="#000" stroke-width="3"/><path d="m490.331 183.216c-3.682 0-6.667-2.985-6.667-6.666 0-3.682 2.985-6.667 6.667-6.667s6.666 2.985 6.666 6.667c0 3.681-2.984 6.666-6.666 6.666z"/><path d="m490.331 183.216c-3.682 0-6.667-2.985-6.667-6.666 0-3.682 2.985-6.667 6.667-6.667s6.666 2.985 6.666 6.667c0 3.681-2.984 6.666-6.666 6.666z" fill="none" stroke="#000" stroke-width="3"/><path d="m300.997 183.216c-3.682 0-6.666-2.985-6.666-6.666 0-3.682 2.984-6.667 6.666-6.667s6.667 2.985 6.667 6.667c0 3.681-2.985 6.666-6.667 6.666z"/><path d="m300.997 183.216c-3.682 0-6.666-2.985-6.666-6.666 0-3.682 2.984-6.667 6.666-6.667s6.667 2.985 6.667 6.667c0 3.681-2.985 6.666-6.667 6.666z" fill="none" stroke="#000" stroke-width="3"/><path d="m490.331 322.4c-3.682 0-6.667-2.984-6.667-6.666s2.985-6.667 6.667-6.667 6.666 2.985 6.666 6.667-2.984 6.666-6.666 6.666z"/><path d="m490.331 322.4c-3.682 0-6.667-2.984-6.667-6.666s2.985-6.667 6.667-6.667 6.666 2.985 6.666 6.667-2.984 6.666-6.666 6.666z" fill="none" stroke="#000" stroke-width="3"/><path d="m423.331 342.261c-3.682 0-6.667-2.985-6.667-6.666 0-3.682 2.985-6.667 6.667-6.667s6.666 2.985 6.666 6.667c0 3.681-2.984 6.666-6.666 6.666z"/><path d="m423.331 342.261c-3.682 0-6.667-2.985-6.667-6.666 0-3.682 2.985-6.667 6.667-6.667s6.666 2.985 6.666 6.667c0 3.681-2.984 6.666-6.666 6.666z" fill="none" stroke="#000" stroke-width="3"/><path d="m300.997 342.261c-3.682 0-6.666-2.985-6.666-6.666 0-3.682 2.984-6.667 6.666-6.667s6.667 2.985 6.667 6.667c0 3.681-2.985 6.666-6.667 6.666z"/><path d="m300.997 342.261c-3.682 0-6.666-2.985-6.666-6.666 0-3.682 2.984-6.667 6.666-6.667s6.667 2.985 6.667 6.667c0 3.681-2.985 6.666-6.667 6.666z" fill="none" stroke="#000" stroke-width="3"/><path d="m366.781 300.771c-3.682 0-6.667-2.985-6.667-6.667s2.985-6.667 6.667-6.667 6.666 2.985 6.666 6.667-2.984 6.667-6.666 6.667z"/><path d="m366.781 300.771c-3.682 0-6.667-2.985-6.667-6.667s2.985-6.667 6.667-6.667 6.666 2.985 6.666 6.667-2.984 6.667-6.666 6.667z" fill="none" stroke="#000" stroke-width="3"/><path d="m300.997 325.126c-3.682 0-6.666-2.985-6.666-6.667s2.984-6.667 6.666-6.667 6.667 2.985 6.667 6.667-2.985 6.667-6.667 6.667z"/><path d="m300.997 325.126c-3.682 0-6.666-2.985-6.666-6.667s2.984-6.667 6.666-6.667 6.667 2.985 6.667 6.667-2.985 6.667-6.667 6.667z" fill="none" stroke="#000" stroke-width="3"/><path d="m114.27 325.126c-3.682 0-6.667-2.985-6.667-6.667s2.985-6.667 6.667-6.667 6.667 2.985 6.667 6.667-2.985 6.667-6.667 6.667z"/><path d="m114.27 325.126c-3.682 0-6.667-2.985-6.667-6.667s2.985-6.667 6.667-6.667 6.667 2.985 6.667 6.667-2.985 6.667-6.667 6.667z" fill="none" stroke="#000" stroke-width="3"/><path d="m190.338 259.501v-180.062" fill="none" stroke="#000" stroke-width="3"/><path d="m300.997 549.708v-88.479" fill="none" stroke="#000" stroke-width="3"/><path d="m489.626 549.708v-94.79" fill="none" stroke="#000" stroke-width="3"/><path d="m613.172 259.501v-180.062" fill="none" stroke="#000" stroke-width="3"/><text transform="translate(264.564 432.729)"><tspan fill="#656565" font-family="Avenir-Medium" font-size="30" x="-16.95" y="2">T1</tspan></text><text transform="translate(170.891 253.087)"><tspan fill="#656565" font-family="Avenir-Medium" font-size="30" x="-16.95" y="2">T5</tspan></text><text transform="translate(351.815 223.604)"><tspan fill="#656565" font-family="Avenir-Medium" font-size="30" x="-16.95" y="2">T2</tspan></text><text transform="translate(634.105 260.715)"><tspan fill="#656565" font-family="Avenir-Medium" font-size="30" x="-16.95" y="2">T6</tspan></text><text transform="translate(519.097 390.678)"><tspan fill="#656565" font-family="Avenir-Medium" font-size="30" x="-16.95" y="2">T3</tspan></text><text transform="translate(519.097 249.604)"><tspan fill="#656565" font-family="Avenir-Medium" font-size="30" x="-16.95" y="9">T4</tspan></text><text transform="translate(378.035 37)"><tspan fill="#656565" font-family="Avenir-Medium" font-size="30" x="-104.16" y="9">Write Line (WL)</tspan></text><text transform="translate(381.646 579.084)"><tspan fill="#656565" font-family="Avenir-Medium" font-size="30" x="-29.175" y="9">Gnd</tspan></text><text transform="translate(761.146 569.708)"><tspan fill="#656565" font-family="Avenir-Medium" font-size="30" x="-46.65" y="-11.5">Bit line </tspan><tspan fill="#656565" font-family="Avenir-Medium" font-size="30" x="-25.575" y="29.5">(BL)</tspan></text><text transform="translate(148.471 534.376)"><tspan fill="#656565" font-family="Avenir-Medium" font-size="30" x="-17.235" y="6.292">BL</tspan></text><text transform="translate(381.646 155.05)"><tspan fill="#656565" font-family="Avenir-Medium" font-size="30" x="-46.11" y="9">Supply</tspan></text><path d="m131.375 511.169h34.771" fill="none" stroke="#656565" stroke-width="4"/><path d="m467.093 221.205v60.298" fill="none" stroke="#000" stroke-width="5"/><path d="m455.018 277.887v-51" fill="none" stroke="#000" stroke-width="3"/><path d="m445.558 252.387h-20.888" fill="none" stroke="#000" stroke-width="3"/><path d="m450.224 247.72c2.578 0 4.667 2.089 4.667 4.667 0 2.577-2.089 4.666-4.667 4.666-2.577 0-4.666-2.089-4.666-4.666 0-2.578 2.089-4.667 4.666-4.667z" fill="none" stroke="#000" stroke-width="3"/><path d="m467.239 275.475h24.354" fill="none" stroke="#000" stroke-width="3"/><path d="m468.593 226.887h23" fill="none" stroke="#000" stroke-width="3"/><path d="m496.62 273.361h-13.093v-45.015h13.093z" fill="#fff"/><path d="m324.358 283.736v-60.297" fill="none" stroke="#000" stroke-width="5"/><path d="m336.432 227.055v51" fill="none" stroke="#000" stroke-width="3"/><path d="m345.893 252.555h20.888" fill="none" stroke="#000" stroke-width="3"/><path d="m341.226 257.221c-2.577 0-4.666-2.089-4.666-4.666 0-2.578 2.089-4.667 4.666-4.667 2.578 0 4.667 2.089 4.667 4.667 0 2.577-2.089 4.666-4.667 4.666z" fill="none" stroke="#000" stroke-width="3"/><path d="m324.212 229.466h-24.354" fill="none" stroke="#000" stroke-width="3"/><path d="m322.858 278.055h-23" fill="none" stroke="#000" stroke-width="3"/><path d="m293.831 230.58h13.092v45.015h-13.092z" fill="#fff"/></svg>